<?xml version="1.0" encoding="UTF-8" standalone="no"?>
<svg
   xmlns:dc="http://purl.org/dc/elements/1.1/"
   xmlns:cc="http://creativecommons.org/ns#"
   xmlns:rdf="http://www.w3.org/1999/02/22-rdf-syntax-ns#"
   xmlns:svg="http://www.w3.org/2000/svg"
   xmlns="http://www.w3.org/2000/svg"
   viewBox="0 0 1050.08 423.95999"
   height="423.95999"
   width="1050.08"
   xml:space="preserve"
   id="svg2"
   version="1.1"><metadata
     id="metadata8"><rdf:RDF><cc:Work
         rdf:about=""><dc:format>image/svg+xml</dc:format><dc:type
           rdf:resource="http://purl.org/dc/dcmitype/StillImage" /></cc:Work></rdf:RDF></metadata><defs
     id="defs6" /><g
     transform="matrix(1.3333333,0,0,-1.3333333,0,423.96)"
     id="g10"><g
       transform="scale(0.1)"
       id="g12"><path
         id="path14"
         style="fill:#537fc9;fill-opacity:1;fill-rule:nonzero;stroke:none"
         d="M 7875.61,2953.48 H 6564.64 l 80.77,226.03 h 1230.2 v -226.03" /><path
         id="path16"
         style="fill:#537fc9;fill-opacity:1;fill-rule:nonzero;stroke:none"
         d="m 4380.84,3179.55 1217.15,0.14 79.7,-226.58 c 0.59,0.32 -1296.44,-0.28 -1296.44,0 0,0.32 -0.79,226.44 -0.41,226.44" /><path
         id="path18"
         style="fill:#537fc9;fill-opacity:1;fill-rule:nonzero;stroke:none"
         d="m 3414.16,3179.59 c 200.61,-19.35 374.98,-90.82 523.55,-226.44 0,0 -2206.28,-0.22 -2206.28,0 0,0.28 0,226.49 0,226.49 l 1682.73,-0.05" /><path
         id="path20"
         style="fill:#537fc9;fill-opacity:1;fill-rule:nonzero;stroke:none"
         d="M 0.0859375,3179.59 H 1532.79 V 2953.55 H 0.0859375 v 226.04" /><path
         id="path22"
         style="fill:#537fc9;fill-opacity:1;fill-rule:nonzero;stroke:none"
         d="M 7875.61,2529.39 H 6414.42 c 0,0 79.7,224.84 79.21,224.93 h 1381.98 v -224.93" /><path
         id="path24"
         style="fill:#537fc9;fill-opacity:1;fill-rule:nonzero;stroke:none"
         d="m 5828.28,2529.12 h -1447.5 v 225.24 h 1368.2 l 79.3,-225.24" /><path
         id="path26"
         style="fill:#537fc9;fill-opacity:1;fill-rule:nonzero;stroke:none"
         d="m 4109.52,2754.42 c 29.07,-74.27 63.49,-137.76 63.49,-224.94 H 1731.84 v 224.94 h 2377.68" /><path
         id="path28"
         style="fill:#537fc9;fill-opacity:1;fill-rule:nonzero;stroke:none"
         d="M 0.0859375,2754.42 H 1532.79 V 2529.48 H 0.0859375 v 224.94" /><path
         id="path30"
         style="fill:#537fc9;fill-opacity:1;fill-rule:nonzero;stroke:none"
         d="m 6264.95,2104.25 80.19,225.98 1097.17,-0.31 v -225.16 l -1177.36,-0.51" /><path
         id="path32"
         style="fill:#537fc9;fill-opacity:1;fill-rule:nonzero;stroke:none"
         d="m 5898.7,2330.29 79.93,-226.04 H 4812.35 v 226.04 H 5898.7" /><path
         id="path34"
         style="fill:#537fc9;fill-opacity:1;fill-rule:nonzero;stroke:none"
         d="m 4192.37,2330.33 c 0,-77.5 -9.73,-158.26 -32.29,-226.08 h -668.4 v 226.08 h 700.69" /><path
         id="path36"
         style="fill:#537fc9;fill-opacity:1;fill-rule:nonzero;stroke:none"
         d="M 427.281,2329.23 H 1086.07 V 2104.3 H 427.281 v 224.93" /><path
         id="path38"
         style="fill:#537fc9;fill-opacity:1;fill-rule:nonzero;stroke:none"
         d="m 2175.28,2330.33 h 657.65 V 2104.3 h -657.65 v 226.03" /><path
         id="path40"
         style="fill:#537fc9;fill-opacity:1;fill-rule:nonzero;stroke:none"
         d="m 5460.18,1860.2 c 0,0 0.19,-171.08 0.05,-171.41 h -647.88 v 224.94 H 6046.91 L 6123.59,1704 c 0.36,-0.13 73.93,210.24 74.08,209.78 H 7441.9 v -224.99 h -644.69 c -0.06,0.33 -0.36,171.36 -0.36,171.36 l -59.63,-171.36 -1217.51,0.33 -59.53,171.08" /><path
         id="path42"
         style="fill:#537fc9;fill-opacity:1;fill-rule:nonzero;stroke:none"
         d="m 2175.28,1913.78 h 1887.91 v 0.09 c -41.31,-75.36 -116.21,-166.93 -187.28,-225.08 0,0 -1700.67,-0.31 -1700.67,0 0,0.33 0.04,224.59 0.04,224.99" /><path
         id="path44"
         style="fill:#537fc9;fill-opacity:1;fill-rule:nonzero;stroke:none"
         d="M 427.281,1913.83 H 1086.07 V 1688.84 H 427.281 v 224.99" /><path
         id="path46"
         style="fill:#537fc9;fill-opacity:1;fill-rule:nonzero;stroke:none"
         d="m 6797.21,1489.65 h 644.69 v -224.94 h -644.69 v 224.94" /><path
         id="path48"
         style="fill:#537fc9;fill-opacity:1;fill-rule:nonzero;stroke:none"
         d="m 5460.18,1489.65 h -647.83 v -224.94 c -0.32,0.11 648.02,-0.08 648.02,0 0,0.11 0.73,224.94 -0.19,224.94" /><path
         id="path50"
         style="fill:#537fc9;fill-opacity:1;fill-rule:nonzero;stroke:none"
         d="m 6667,1489.65 c -2.93,0.33 -75.52,-224.83 -78.57,-224.94 l -918.28,-0.39 c -0.72,0.35 -80.74,225.66 -80.8,225.33 H 6667" /><path
         id="path52"
         style="fill:#537fc9;fill-opacity:1;fill-rule:nonzero;stroke:none"
         d="m 2175.2,1489.7 h 1697.47 c 77.5,-64.59 147.52,-144.25 202.39,-224.99 3.1,0.11 -1899.82,-0.08 -1899.82,0 0,0.11 -0.04,224.76 -0.04,224.99" /><path
         id="path54"
         style="fill:#537fc9;fill-opacity:1;fill-rule:nonzero;stroke:none"
         d="M 1085.97,1264.77 V 1489.7 H 428.367 c 0,0 0.137,-224.88 0,-224.88 -0.137,0 657.283,-0.05 657.603,-0.05" /><path
         id="path56"
         style="fill:#537fc9;fill-opacity:1;fill-rule:nonzero;stroke:none"
         d="m 6797.21,1065.57 h 644.64 V 840.586 h -644.64 v 224.984" /><path
         id="path58"
         style="fill:#537fc9;fill-opacity:1;fill-rule:nonzero;stroke:none"
         d="m 4812.31,1065.57 h 647.87 V 840.625 h -647.87 v 224.945" /><path
         id="path60"
         style="fill:#537fc9;fill-opacity:1;fill-rule:nonzero;stroke:none"
         d="m 6437.67,839.531 c 0.18,1.016 79.51,226.229 80.74,226.039 h -780.62 c -1.36,0.09 80.03,-225.023 80.03,-225.023 0,0 619.7,-1.953 619.85,-1.016" /><path
         id="path62"
         style="fill:#537fc9;fill-opacity:1;fill-rule:nonzero;stroke:none"
         d="m 2175.24,840.625 c 0,-0.898 -0.04,224.945 0,224.985 h 667.41 c 0,0 0.6,-225.063 0,-225.063 -0.63,0 -667.41,0.273 -667.41,0.078" /><path
         id="path64"
         style="fill:#537fc9;fill-opacity:1;fill-rule:nonzero;stroke:none"
         d="m 4168.73,1065.61 c 32.26,-67.817 35.5,-148.52 41.94,-226.02 h -707.18 v 226.02 h 665.24" /><path
         id="path66"
         style="fill:#537fc9;fill-opacity:1;fill-rule:nonzero;stroke:none"
         d="M 428.367,1065.61 H 1085.97 V 840.684 H 428.367 v 224.926" /><path
         id="path68"
         style="fill:#537fc9;fill-opacity:1;fill-rule:nonzero;stroke:none"
         d="M 6797.21,650.156 H 7875.57 V 425.117 H 6797.21 v 225.039" /><path
         id="path70"
         style="fill:#537fc9;fill-opacity:1;fill-rule:nonzero;stroke:none"
         d="M 4380.74,650.156 H 5460.18 V 425.117 H 4380.74 v 225.039" /><path
         id="path72"
         style="fill:#537fc9;fill-opacity:1;fill-rule:nonzero;stroke:none"
         d="m 6292.61,425.117 h -329.25 l -79,225.039 h 484.39 l -76.14,-225.039" /><path
         id="path74"
         style="fill:#537fc9;fill-opacity:1;fill-rule:nonzero;stroke:none"
         d="M 0,650.156 V 425.215 h 1531.64 c 0.65,-0.352 -0.68,224.805 0,224.805 0.65,0 -1533.42125,0.136 -1531.64,0.136" /><path
         id="path76"
         style="fill:#537fc9;fill-opacity:1;fill-rule:nonzero;stroke:none"
         d="m 4182.64,650.156 c -16.12,-74.218 -30.9,-164.687 -85.12,-225.039 l -20.23,0.098 H 1731.76 v 224.941 h 2450.88" /><path
         id="path78"
         style="fill:#537fc9;fill-opacity:1;fill-rule:nonzero;stroke:none"
         d="m 6143.38,0.546875 h -30.3 L 6036.13,226.035 h 186.23 L 6143.38,0.546875" /><path
         id="path80"
         style="fill:#537fc9;fill-opacity:1;fill-rule:nonzero;stroke:none"
         d="M 6797.15,226.035 H 7875.57 V 0 H 6797.15 v 226.035" /><path
         id="path82"
         style="fill:#537fc9;fill-opacity:1;fill-rule:nonzero;stroke:none"
         d="M 1731.43,0.546875 V 225.664 c 0,0 2212.85,-0.273 2219.2,-0.273 C 3802.06,83.3594 3598.21,3.18359 3378.66,0 l -1646.9,0.449219" /><path
         id="path84"
         style="fill:#537fc9;fill-opacity:1;fill-rule:nonzero;stroke:none"
         d="M 4380.74,226.035 H 5460.18 V 0 H 4380.74 v 226.035" /><path
         id="path86"
         style="fill:#537fc9;fill-opacity:1;fill-rule:nonzero;stroke:none"
         d="m 1531.64,225.039 c 0,0 -0.68,-224.492125 0,-224.492125 C 1532.29,0.546875 0.449219,-0.371094 0,0.0976563 -0.414063,0.546875 0.410156,225.664 0,225.664 c -0.414063,0 1530.96,-1.367 1531.64,-0.625" /></g></g></svg>